<?xml version="1.0" standalone="no"?>
<svg xmlns="http://www.w3.org/2000/svg" viewBox="0 0 100.009 115.48" width="100.009" height="115.48"><polygon fill="none" stroke="#5c989b" stroke-width="3" points="98.509,29.62 98.509,85.86 50.0045,113.98 1.5,85.86 1.5,29.62 50.0045,1.5"></polygon><g fill="#0b4e54" color="#0b4e54" transform="translate(28.0045 22.5) scale(0.4583334)"><svg width="96.0" height="96.0" x="0.0" y="0.0" viewBox="0 0 96 96"><path d="M76 95.992h-56c-1.104 0-2-0.9-2-2v-32c0-0.9 0.592-1.68 1.452-1.92l27.236-7.732c0.516-0.356 1.236-0.432 1.876-0.216l27.984 7.94c0.86 0.248 1.452 1.032 1.452 1.924v32c0 1.104-0.9 2.004-2 2.004zM22 91.992h52v-28.488l-26-7.38-26 7.38v28.488z" fill="currentColor"></path><path d="M70 59.992h-4v-49.48l-18-6.336-18 6.336v49.48h-4v-50.896c0-0.848 0.536-1.608 1.336-1.884l19.2-6.76c0.58-0.48 1.48-0.584 2.22-0.252l19.908 7.008c0.8 0.276 1.336 1.036 1.336 1.884v50.9z" fill="currentColor"></path><path d="M56 95.992h-16c-1.104 0-2-0.9-2-2v-20c0-1.1 0.896-2 2-2h16c1.1 0 2 0.9 2 2v20c0 1.1-0.9 2-2 2zM42 91.992h12v-16h-12v16z" fill="currentColor"></path><path d="M48 30.16c-4.412 0-8-3.588-8-8s3.588-8 8-8c4.416 0 8 3.588 8 8s-3.584 8-8 8zM48 18.16c-2.204 0-4 1.796-4 4s1.796 4 4 4 4-1.796 4-4-1.796-4-4-4z" fill="currentColor"></path><path d="M86 95.992h-76c-1.104 0-2-0.9-2-2s0.896-2 2-2h76c1.1 0 2 0.9 2 2s-0.9 2-2 2z" fill="currentColor"></path></svg></g><path fill="#0b4e54" fill-rule="nonzero" d="M7.11 18.48L0 18.48L0 18.20L0.56 17.98Q1.12 17.78 1.30 17.44Q1.48 17.11 1.48 16.58L1.48 16.58L1.48 1.93Q1.48 1.37 1.30 1.04Q1.12 0.70 0.56 0.50L0.56 0.50L0 0.28L0 0L7.11 0L7.11 0.28L6.64 0.48Q6.10 0.67 5.91 0.99Q5.71 1.32 5.71 1.88L5.71 1.88L5.71 8.68L12.40 8.68L12.40 1.88Q12.40 1.32 12.22 0.99Q12.04 0.67 11.48 0.48L11.48 0.48L10.98 0.28L10.98 0L18.12 0L18.12 0.28L17.56 0.50Q17.02 0.70 16.83 1.04Q16.63 1.37 16.63 1.93L16.63 1.93L16.63 16.58Q16.63 17.11 16.83 17.44Q17.02 17.78 17.56 17.98L17.56 17.98L18.12 18.20L18.12 18.48L10.98 18.48L10.98 18.20L11.48 18.03Q12.04 17.81 12.22 17.49Q12.40 17.16 12.40 16.60L12.40 16.60L12.40 9.24L5.71 9.24L5.71 16.60Q5.71 17.64 6.64 18.03L6.64 18.03L7.11 18.20L7.11 18.48ZM26.96 18.48L19.35 18.48L19.35 18.20L19.91 18.00Q20.47 17.84 20.65 17.50Q20.83 17.16 20.83 16.60L20.83 16.60L20.83 1.93Q20.83 1.37 20.64 1.04Q20.44 0.70 19.88 0.50L19.88 0.50L19.35 0.28L19.35 0L26.15 0Q30.32 0 32.19 1.53Q34.05 3.05 34.05 5.54L34.05 5.54Q34.05 7.14 33.28 8.47Q32.51 9.80 30.74 10.58Q28.98 11.37 25.98 11.37L25.98 11.37L25.03 11.37L25.03 16.52Q25.03 17.61 26.12 17.95L26.12 17.95L26.96 18.20L26.96 18.48ZM25.03 0.56L25.03 10.81L26.10 10.81Q27.47 10.81 28.34 10.36Q29.20 9.91 29.62 8.79Q30.04 7.67 30.04 5.68L30.04 5.68Q30.04 3.67 29.58 2.55Q29.12 1.43 28.22 0.99Q27.33 0.56 25.98 0.56L25.98 0.56L25.03 0.56ZM42.36 18.48L35.17 18.48L35.17 18.20L35.73 17.98Q36.29 17.78 36.47 17.44Q36.65 17.11 36.65 16.55L36.65 16.55L36.65 1.93Q36.65 1.37 36.48 1.04Q36.32 0.70 35.73 0.50L35.73 0.50L35.17 0.28L35.17 0L42.36 0L42.36 0.28L41.80 0.50Q41.24 0.70 41.06 1.04Q40.88 1.37 40.88 1.93L40.88 1.93L40.88 16.55Q40.88 17.11 41.06 17.43Q41.24 17.75 41.80 17.98L41.80 17.98L42.36 18.20L42.36 18.48Z" transform="translate(28.823, 74.5)"></path></svg>