<?xml version="1.0" standalone="no"?>
<!DOCTYPE svg PUBLIC "-//W3C//DTD SVG 20010904//EN"
 "http://www.w3.org/TR/2001/REC-SVG-20010904/DTD/svg10.dtd">
<svg version="1.0" xmlns="http://www.w3.org/2000/svg"
 width="1200.000000pt" height="1200.000000pt" viewBox="0 0 1200.000000 1200.000000"
 preserveAspectRatio="xMidYMid meet">

<g transform="translate(0.000000,1200.000000) scale(0.100000,-0.100000)"
fill="#000000" stroke="none">
<path d="M0 6000 l0 -6000 6000 0 6000 0 0 6000 0 6000 -6000 0 -6000 0 0
-6000z m8960 0 l0 -4250 -2960 0 -2960 0 0 4250 0 4250 2960 0 2960 0 0 -4250z"/>
<path d="M3170 6000 l0 -4120 2830 0 2830 0 0 4120 0 4120 -2830 0 -2830 0 0
-4120z m2875 2893 c15 -27 65 -111 110 -188 46 -77 142 -241 215 -365 223
-377 200 -327 200 -445 l0 -102 41 -7 c78 -12 141 -109 124 -189 -10 -46 -58
-132 -115 -207 l-49 -65 -1 -261 c0 -233 -2 -263 -16 -268 -9 -4 -25 -4 -35
-1 -18 6 -19 30 -19 581 l0 574 -505 0 -505 0 0 -182 0 -183 181 3 c173 3 182
4 218 28 54 35 133 35 192 1 42 -25 51 -26 218 -27 96 0 178 -3 183 -6 16 -10
8 -69 -16 -121 -33 -70 -86 -105 -168 -111 -35 -3 -77 1 -99 8 -49 17 -104 76
-120 130 -15 50 -50 80 -93 80 -43 0 -72 -23 -80 -64 -10 -51 -58 -110 -111
-136 -37 -18 -58 -21 -110 -18 -80 5 -139 42 -172 108 l-23 44 0 -381 c0 -344
-2 -381 -16 -387 -9 -4 -25 -4 -35 -1 -18 6 -19 23 -19 301 l0 295 -39 52
c-53 70 -108 174 -116 218 -8 43 8 108 34 138 11 12 41 31 67 40 l48 19 -3 95
c-2 82 0 100 17 124 11 15 49 78 84 138 300 512 442 750 456 768 25 29 48 20
77 -30z m250 -1027 c60 -16 129 -50 156 -77 15 -15 17 -24 9 -39 -15 -28 -41
-25 -98 11 -37 23 -66 32 -113 36 -76 7 -99 17 -99 43 0 39 57 50 145 26z
m-465 -11 c27 -32 8 -49 -70 -62 -43 -7 -99 -25 -133 -43 -31 -16 -64 -30 -72
-30 -22 0 -37 34 -22 52 56 68 261 126 297 83z m-100 -155 c34 -34 24 -74 -21
-85 -52 -13 -81 58 -37 89 29 20 34 20 58 -4z m587 7 c1 -1 4 -14 8 -29 13
-51 -59 -88 -87 -44 -14 21 -8 65 10 75 13 9 60 7 69 -2z m-422 -393 c25 -29
39 -37 78 -41 57 -7 100 10 128 48 22 32 56 38 66 13 3 -9 -3 -32 -13 -52 -10
-21 -18 -40 -19 -44 0 -4 19 -21 43 -38 24 -17 56 -51 72 -76 51 -81 60 -150
60 -473 0 -159 -3 -296 -6 -305 -4 -10 -18 -16 -35 -16 -21 0 -30 6 -34 23 -3
12 -6 166 -7 342 -3 309 -4 321 -25 361 -78 146 -270 180 -374 67 -64 -68 -64
-66 -69 -443 l-5 -345 -30 0 -30 0 -3 325 c-2 212 1 343 8 377 14 66 61 136
116 174 l44 30 -24 36 c-19 28 -23 41 -15 55 15 28 41 22 74 -18z m-291 -30
c14 -5 16 -49 16 -389 0 -346 -2 -383 -16 -389 -9 -4 -25 -4 -35 -1 -18 6 -19
25 -19 390 0 357 1 384 18 388 9 3 18 5 19 6 1 0 8 -2 17 -5z m836 -394 c0
-377 0 -379 -21 -385 -45 -15 -47 -2 -49 370 -2 193 -2 362 -1 377 1 29 24 40
54 26 16 -8 17 -37 17 -388z m-347 207 c19 -15 45 -42 56 -60 20 -33 21 -46
21 -447 0 -236 -3 -417 -9 -423 -5 -5 -19 -7 -32 -5 l-24 3 -5 410 c-5 442 -5
442 -60 470 -36 19 -44 19 -85 0 -58 -28 -59 -35 -62 -440 -2 -203 -3 -387 -3
-408 0 -37 -1 -38 -32 -35 l-33 3 0 422 0 421 30 43 c42 58 87 81 152 76 36
-2 62 -11 86 -30z m-69 -123 c14 -14 16 -69 14 -496 -3 -445 -4 -482 -20 -492
-13 -8 -23 -8 -35 0 -17 10 -18 47 -21 492 -2 427 0 482 14 496 8 9 19 16 24
16 5 0 16 -7 24 -16z m-124 -1983 c9 -24 9 -41 -4 -92 -9 -35 -19 -65 -23 -68
-3 -4 -2 8 2 24 25 97 23 147 -7 153 -44 8 -72 -132 -65 -324 5 -138 11 -174
28 -174 19 0 70 67 105 138 36 71 37 72 75 72 27 0 39 -4 39 -14 0 -8 -4 -18
-10 -21 -6 -3 -7 1 -4 9 3 9 1 16 -5 16 -6 0 -11 -4 -11 -10 0 -19 -3 -25 -17
-35 -15 -11 -21 -64 -9 -84 13 -20 54 -11 98 22 61 47 80 55 34 16 -81 -70
-121 -77 -167 -28 -16 17 -29 27 -29 21 0 -21 -81 -112 -100 -112 -22 0 -45
31 -56 74 l-7 29 -19 -23 c-10 -12 -21 -21 -23 -18 -3 3 4 13 15 23 18 16 19
27 14 124 -7 122 11 232 46 281 16 23 29 30 54 30 28 0 36 -5 46 -29z m-1981
-7 c36 -46 44 -90 38 -213 -5 -122 -26 -202 -68 -255 -28 -36 -47 -32 -58 12
-17 61 5 128 54 170 27 24 27 25 24 136 -6 159 -35 196 -116 146 -44 -26 -67
-73 -58 -118 6 -32 5 -34 -9 -23 -64 53 26 171 131 171 33 0 46 -5 62 -26z
m2969 15 c-39 -15 -77 -111 -91 -237 l-5 -43 39 56 c43 61 74 119 94 174 8 20
14 28 14 18 1 -30 -54 -139 -103 -203 -43 -58 -46 -66 -46 -120 l1 -59 19 37
c34 63 43 53 10 -11 -16 -34 -34 -61 -39 -61 -11 0 -21 25 -21 51 0 10 -7 19
-15 19 -8 0 -15 -4 -15 -9 0 -11 -73 -88 -105 -111 -11 -8 12 20 51 63 l71 78
5 112 c8 170 52 258 127 256 35 -1 35 -1 9 -10z m-293 -16 c-42 -7 -90 -62
-114 -135 -24 -70 -28 -200 -10 -273 11 -45 50 -90 84 -98 11 -2 4 -3 -15 -1
-41 4 -77 29 -108 74 -33 49 -45 106 -39 190 10 150 88 251 192 248 33 -1 35
-2 10 -5z m1152 -11 c-18 -19 -41 -114 -51 -200 -6 -57 3 -60 29 -9 57 109 75
148 75 161 0 8 5 18 11 22 16 10 1 -52 -26 -106 -13 -25 -39 -70 -60 -100 -39
-58 -38 -52 -19 -182 4 -29 2 -38 -9 -38 -10 0 -20 26 -32 91 -36 186 6 379
84 379 12 0 11 -3 -2 -18z m-3587 -7 c0 -8 -14 -83 -31 -167 -34 -169 -36
-266 -5 -313 17 -26 17 -26 -2 -16 -11 6 -31 32 -43 58 -19 38 -24 65 -24 131
l0 82 -30 1 -30 2 34 6 c33 6 34 8 63 106 16 55 31 106 33 113 6 17 35 15 35
-3z m2520 -14 c16 -31 12 -93 -10 -128 -30 -50 -41 -39 -17 17 18 43 19 56 10
90 -11 42 -1 54 17 21z m-2850 -64 c0 -7 -6 -21 -13 -31 -12 -17 -14 -16 -14
13 0 19 5 31 14 31 7 0 13 -6 13 -13z m2762 -72 c4 -20 3 -23 -8 -14 -16 13
-19 39 -5 39 5 0 11 -11 13 -25z m-736 -36 c-9 -19 -15 -29 -16 -22 0 15 22
64 27 60 2 -2 -3 -19 -11 -38z m2252 10 c-20 -11 -25 -73 -8 -84 6 -3 10 -5
10 -3 0 2 7 21 15 43 11 33 14 35 15 15 0 -14 -8 -36 -17 -49 -16 -23 -15 -25
11 -48 l27 -23 -25 -56 c-30 -66 -33 -91 -8 -97 11 -3 8 -5 -8 -6 -55 -2 -64
42 -25 119 29 57 29 60 13 60 -16 0 -58 63 -58 86 0 31 20 54 48 54 23 -1 25
-2 10 -11z m-3032 -16 c14 -15 16 -30 10 -108 -3 -49 -9 -100 -12 -112 -11
-42 21 -25 87 45 35 38 72 81 82 95 14 22 25 27 55 26 20 -1 30 -3 20 -6 -9
-2 -19 -11 -22 -19 -7 -17 6 -18 22 -2 6 6 15 9 18 5 4 -4 -9 -14 -29 -22 -34
-14 -37 -19 -37 -55 0 -48 17 -59 64 -42 28 10 29 10 12 -3 -41 -31 -96 -14
-116 34 l-12 30 -61 -60 c-101 -101 -137 -70 -118 103 5 45 7 87 4 95 -7 18
12 16 33 -4z m2430 -20 c7 -25 -2 -158 -13 -200 -4 -16 -1 -23 10 -23 8 0 17
3 19 8 6 13 88 86 88 78 0 -16 -96 -96 -116 -96 -33 0 -47 46 -38 127 4 37 8
84 10 103 2 43 1 41 19 34 8 -4 18 -17 21 -31z m-3166 0 c18 -23 21 -38 18
-78 -5 -56 -34 -123 -60 -139 -25 -15 -71 4 -87 38 -11 24 -11 34 2 68 12 28
13 47 7 64 -8 21 -6 29 15 50 33 33 77 32 105 -3z m420 2 c0 -9 -7 -26 -15
-38 -13 -20 -12 -27 11 -76 21 -42 25 -62 20 -96 -9 -57 -51 -98 -97 -93 -30
3 -34 7 -37 34 -2 20 3 36 14 45 16 13 16 12 6 -8 -16 -29 -15 -43 1 -43 20 0
46 32 57 69 10 35 5 38 -30 15 -22 -13 -21 -12 3 8 27 23 37 70 18 82 -15 10
-23 75 -11 96 13 24 60 28 60 5z m122 -52 c4 -73 -1 -103 -18 -103 -21 0 -28
20 -26 83 2 64 6 77 27 77 9 0 14 -18 17 -57z m123 -9 c-14 -32 -25 -65 -25
-71 0 -14 -39 -18 -41 -5 -1 4 -3 25 -5 46 -1 22 -9 43 -16 48 -9 6 -5 8 12 6
18 -2 28 -12 36 -36 l10 -32 23 55 c13 31 25 54 27 52 2 -1 -8 -30 -21 -63z
m2297 9 c1 -32 2 -68 0 -80 -4 -26 -30 -31 -38 -8 -5 13 -9 13 -22 3 -13 -11
-13 -8 1 19 10 18 17 49 17 71 0 41 6 52 26 52 8 0 13 -20 16 -57z m-2722 32
c15 -18 7 -19 -20 -3 -16 10 -22 10 -35 -2 -20 -21 -36 -105 -22 -119 8 -8 4
-11 -11 -11 -14 0 -27 9 -34 25 -6 14 -18 26 -27 26 -13 1 -13 2 1 6 9 2 20
13 23 23 17 55 96 90 125 55z m-412 -7 c15 -15 16 -31 1 -26 -6 2 -10 7 -9 12
1 5 -4 13 -12 17 -7 5 -8 9 -2 9 5 0 15 -5 22 -12z m1663 -15 c-12 -20 -14
-14 -5 12 4 9 9 14 11 11 3 -2 0 -13 -6 -23z m1600 0 c-12 -20 -14 -14 -5 12
4 9 9 14 11 11 3 -2 0 -13 -6 -23z m-47 -24 c13 -30 14 -31 25 -13 12 18 12
18 5 -1 -3 -11 -9 -30 -11 -42 -6 -27 -38 -31 -47 -7 -3 9 -4 19 -1 23 2 4 1
21 -4 37 l-8 29 -16 -30 c-19 -35 -23 -28 -5 10 16 35 46 32 62 -6z m601 12
c0 -8 -7 -17 -15 -19 -13 -5 -13 -3 -1 11 12 15 11 17 -3 17 -9 0 -16 -4 -16
-10 0 -17 -3 -25 -17 -38 -7 -7 -13 -29 -13 -48 0 -41 19 -52 61 -37 16 6 29
7 29 3 0 -13 -64 -23 -89 -15 -23 7 -51 53 -51 83 0 11 10 31 21 46 17 22 28
27 58 24 23 -2 36 -8 36 -17z m-3394 -50 c-3 -49 -1 -53 15 -47 16 6 15 3 -3
-14 -19 -17 -23 -31 -23 -85 0 -146 -46 -235 -123 -235 -19 0 -40 6 -46 13
-19 24 -23 72 -8 107 l14 35 -5 -55 c-3 -43 0 -59 12 -69 13 -11 20 -11 42 4
46 30 77 129 88 283 4 60 3 63 -13 48 -15 -14 -15 -10 3 29 30 64 52 57 47
-14z m901 39 c-23 -22 -37 -74 -30 -120 3 -19 0 -30 -8 -30 -18 0 -31 21 -38
62 -6 32 -2 41 25 72 17 20 40 36 52 36 l21 0 -22 -20z m63 9 c11 -17 -1 -21
-15 -4 -8 9 -8 15 -2 15 6 0 14 -5 17 -11z m1532 4 c-26 -7 -49 -60 -49 -114
1 -55 -8 -61 -35 -23 l-19 26 -29 -41 c-15 -23 -30 -39 -33 -36 -3 3 4 15 16
28 11 12 34 50 51 84 33 66 52 83 91 82 17 -1 19 -3 7 -6z m53 -14 c0 -14 -17
-10 -23 5 -4 10 -1 13 9 9 7 -3 14 -9 14 -14z m-2239 -12 c-10 -9 -11 -8 -5 6
3 10 9 15 12 12 3 -3 0 -11 -7 -18z m829 15 c0 -4 -5 -13 -11 -19 -6 -6 -12
-34 -12 -62 -2 -52 -20 -70 -32 -31 -3 11 -10 20 -15 20 -14 0 10 63 32 83 21
18 38 22 38 9z m1170 -17 c14 -17 8 -177 -8 -183 -18 -6 -33 55 -30 126 2 73
12 88 38 57z m1374 -57 c-98 -107 -124 -133 -124 -122 0 7 17 27 38 46 20 18
57 57 81 86 24 29 46 50 49 47 3 -2 -17 -28 -44 -57z m-462 27 c23 -51 -25
-125 -71 -107 -14 6 -14 7 2 10 13 3 17 10 14 24 -3 12 1 27 9 36 9 8 14 25
11 39 -6 32 20 30 35 -2z m-2247 -67 c0 -55 -4 -78 -12 -78 -18 0 -33 33 -33
72 0 26 -3 30 -11 18 -9 -12 -10 -12 -5 3 3 11 9 30 12 43 5 18 12 24 28 22
19 -3 21 -9 21 -80z m1579 57 c0 -11 -4 -43 -7 -72 -5 -37 -3 -53 6 -56 8 -4
7 -6 -3 -6 -23 -1 -40 19 -40 49 0 14 -5 31 -10 36 -7 7 -7 21 1 43 9 24 16
31 33 29 14 -2 21 -10 20 -23z m-2741 8 c-7 -2 -19 -2 -25 0 -7 3 -2 5 12 5
14 0 19 -2 13 -5z m267 -13 c-14 -11 -29 -20 -35 -20 -5 0 1 9 15 20 14 11 30
20 35 20 6 0 -1 -9 -15 -20z m3391 -10 c-18 -17 -36 -30 -40 -30 -7 1 61 60
69 60 3 0 -10 -14 -29 -30z m-330 -11 c-5 -13 -10 -19 -10 -12 -1 15 10 45 15
40 3 -2 0 -15 -5 -28z m19 -39 c0 -5 -5 -10 -11 -10 -5 0 -7 5 -4 10 3 6 8 10
11 10 2 0 4 -4 4 -10z m-3532 -112 c-3 -7 -18 -14 -34 -16 l-29 -3 25 15 c32
18 43 19 38 4z m749 -414 c2 -6 -8 -9 -25 -6 -23 3 -34 -2 -46 -20 -20 -28
-54 -134 -61 -192 -3 -22 -10 -72 -15 -111 -6 -44 -6 -73 0 -79 6 -6 28 2 61
23 28 17 54 30 56 27 2 -2 -21 -18 -52 -36 -43 -25 -55 -36 -49 -49 25 -60 33
-93 34 -143 0 -61 -8 -73 -44 -64 -30 7 -45 42 -58 140 -7 51 -17 85 -27 93
-14 10 -13 14 7 34 17 15 22 29 19 46 -2 14 4 65 15 115 36 166 83 241 147
236 19 -2 36 -8 38 -14z m459 6 c-52 -10 -91 -56 -116 -137 -23 -73 -27 -198
-9 -268 11 -45 50 -90 84 -98 11 -2 5 -3 -13 -1 -45 4 -97 45 -124 97 -18 35
-22 59 -23 137 0 83 4 102 27 152 44 94 90 129 168 127 l45 -1 -39 -8z m86
-35 c15 -20 8 -90 -12 -122 -24 -41 -46 -45 -26 -5 26 50 29 96 10 133 -17 33
-17 34 2 19 10 -8 22 -19 26 -25z m-548 -48 c-8 -23 -28 -58 -45 -77 l-32 -35
22 35 c12 19 31 54 42 78 26 54 32 54 13 -1z m456 -78 c0 -11 -4 -17 -10 -14
-5 3 -10 13 -10 21 0 8 5 14 10 14 6 0 10 -9 10 -21z m1398 -30 c-19 -11 -26
-89 -9 -89 10 0 27 58 22 75 -1 6 3 4 10 -2 10 -10 9 -20 -5 -49 -16 -36 -16
-37 4 -58 25 -27 25 -37 1 -84 -10 -20 -21 -49 -25 -64 -11 -45 19 -35 92 34
l67 61 -66 -66 c-75 -76 -110 -87 -131 -41 -10 21 -8 33 17 82 16 31 31 60 33
65 9 19 -28 4 -53 -23 -16 -16 -32 -30 -37 -30 -4 0 9 15 29 34 l37 33 -22 28
c-37 47 -23 105 26 105 23 -1 25 -2 10 -11z m-765 -65 c1 -22 -2 -74 -7 -116
-5 -50 -4 -78 2 -78 6 0 25 15 44 33 18 17 42 38 53 46 11 8 -3 -9 -32 -38
-91 -90 -119 -65 -109 97 4 80 3 102 -7 97 -6 -4 -3 1 8 9 26 22 46 1 48 -50z
m377 51 c15 -18 17 -68 6 -167 -4 -47 -4 -78 2 -78 12 0 142 128 142 140 0 24
41 50 78 50 37 0 37 0 12 -13 -14 -8 -24 -19 -22 -25 1 -7 -2 -12 -8 -12 -5 0
-12 -16 -16 -35 -7 -40 5 -61 39 -68 15 -3 12 -5 -10 -6 -23 -1 -37 6 -52 25
-12 15 -21 34 -21 42 0 9 -27 -11 -64 -46 -105 -101 -133 -82 -122 86 5 81 3
101 -7 96 -8 -5 -7 -2 2 9 17 21 25 21 41 2z m-1780 -17 c14 -15 20 -35 20
-65 0 -40 2 -43 28 -44 l27 -2 -26 -4 c-21 -3 -30 -14 -44 -49 -26 -68 -77
-85 -114 -38 -25 31 -27 64 -7 103 9 17 11 32 5 42 -14 22 -11 37 11 59 27 27
74 26 100 -2z m1026 14 c19 -13 34 -50 34 -86 0 -30 4 -35 28 -40 15 -2 -5 -3
-45 -2 l-72 3 -11 -33 c-13 -38 -5 -74 15 -74 16 0 65 56 65 76 0 8 4 14 9 14
14 0 -6 -53 -30 -79 -29 -31 -63 -27 -93 11 l-25 33 -28 -33 c-15 -19 -36 -38
-48 -44 -11 -6 1 12 26 38 63 66 81 104 73 152 -5 34 -3 42 17 56 24 17 66 21
85 8z m164 -69 l1 -58 20 38 c26 49 50 48 72 -2 19 -42 14 -74 -12 -69 -11 2
-17 16 -19 43 -2 22 -7 44 -11 48 -7 7 -29 -35 -45 -86 -4 -11 -13 -17 -23
-15 -14 2 -19 15 -21 58 -4 67 4 100 23 100 12 0 15 -14 15 -57z m391 0 c1
-53 2 -55 12 -30 6 15 14 27 19 27 4 0 1 -15 -6 -32 -8 -18 -17 -41 -20 -51
-4 -11 -13 -17 -23 -15 -15 3 -19 16 -21 67 -3 73 1 91 23 91 12 0 15 -13 16
-57z m-260 0 c-11 -21 -20 -35 -21 -31 0 12 33 78 38 74 2 -2 -6 -21 -17 -43z
m385 -10 c-8 -15 -15 -25 -16 -21 0 12 23 58 27 54 3 -2 -2 -17 -11 -33z m-33
-12 c20 -43 14 -71 -14 -71 -16 0 -19 7 -19 43 0 24 -5 48 -12 55 -9 9 -8 12
8 12 14 0 26 -12 37 -39z m985 32 c-9 -2 -19 -11 -22 -19 -6 -17 -1 -18 25 -4
10 6 19 8 19 5 0 -3 -16 -13 -36 -21 -33 -14 -35 -17 -32 -57 2 -34 7 -43 25
-45 28 -4 72 19 117 61 20 19 36 31 36 28 0 -11 -52 -57 -90 -80 -57 -34 -101
-27 -126 21 -30 57 5 119 65 117 20 -1 29 -3 19 -6z m-211 -33 c1 -22 1 -22
-4 -2 -10 47 -35 17 -53 -63 -13 -57 -6 -82 23 -88 19 -4 18 -4 -5 -6 -56 -2
-94 84 -61 138 24 38 45 52 73 49 19 -2 25 -9 27 -28z m-412 10 c-3 -5 -12
-10 -18 -10 -7 0 -6 4 3 10 19 12 23 12 15 0z m-1685 -17 c0 -5 -13 -17 -28
-27 l-27 -19 24 26 c26 28 31 32 31 20z m2154 -98 c-27 -24 -53 -45 -58 -45
-5 0 -7 2 -5 4 43 38 102 86 106 86 3 0 -16 -20 -43 -45z m-439 5 c-3 -5 -12
-10 -18 -10 -7 0 -6 4 3 10 19 12 23 12 15 0z"/>
<path d="M5970 8787 c-13 -23 -54 -93 -92 -156 -38 -63 -67 -115 -66 -116 3
-2 241 164 254 178 6 5 -23 64 -54 109 l-18 28 -24 -43z"/>
<path d="M6055 8593 c-27 -20 -66 -48 -86 -62 -269 -190 -253 -175 -313 -278
-31 -52 -55 -97 -54 -99 2 -2 46 27 98 63 52 37 109 76 125 87 130 91 335 239
335 243 0 8 -45 83 -50 83 -3 0 -27 -17 -55 -37z"/>
<path d="M6138 8437 c-31 -23 -96 -70 -145 -104 -151 -106 -397 -280 -418
-297 -18 -14 -13 -15 78 -16 l97 0 98 69 c53 39 167 120 253 182 l156 112 -24
43 c-14 24 -28 46 -32 48 -3 2 -32 -14 -63 -37z"/>
<path d="M6188 8242 c-59 -42 -149 -106 -199 -142 -50 -36 -93 -68 -96 -72 -2
-5 33 -8 79 -8 l83 1 147 104 146 105 -25 45 c-13 25 -25 45 -26 45 -1 0 -50
-35 -109 -78z"/>
<path d="M6281 8092 l-94 -67 72 -3 c39 -2 102 -2 141 0 l70 3 -41 68 c-22 37
-43 67 -47 67 -4 -1 -49 -31 -101 -68z"/>
<path d="M5365 7697 c-42 -36 -40 -96 5 -170 19 -31 37 -57 40 -57 10 0 3 244
-8 248 -5 1 -22 -8 -37 -21z"/>
<path d="M6570 7579 l0 -144 40 60 c78 117 74 199 -12 220 l-28 7 0 -143z"/>
<path d="M5570 7511 c0 -16 42 -61 70 -76 57 -30 127 -12 169 41 12 15 21 31
21 35 0 5 -58 9 -130 9 -71 0 -130 -4 -130 -9z"/>
<path d="M6150 7506 c0 -19 45 -64 75 -76 37 -14 81 -12 115 5 28 15 70 60 70
76 0 5 -58 9 -130 9 -103 0 -130 -3 -130 -14z"/>
<path d="M3861 4644 c-17 -24 -24 -49 -24 -80 0 -80 26 -72 43 14 6 31 14 67
17 80 8 33 -9 27 -36 -14z"/>
<path d="M4278 4759 c-22 -12 -24 -59 -3 -59 8 0 15 -9 15 -19 0 -19 18 -31
46 -31 22 0 17 63 -7 94 -23 29 -26 30 -51 15z"/>
<path d="M4260 4625 c-35 -92 33 -115 70 -24 15 35 15 35 -27 44 -29 6 -34 4
-43 -20z"/>
<path d="M4726 4744 c-11 -27 -7 -37 9 -24 16 14 20 40 6 40 -5 0 -12 -7 -15
-16z"/>
<path d="M4810 3543 c0 -79 16 -146 33 -140 19 6 20 93 2 148 -24 72 -35 70
-35 -8z"/>
<path d="M4587 3822 c-21 -23 -22 -52 -2 -52 9 0 19 -8 22 -17 8 -21 23 -33
41 -33 18 0 15 71 -4 98 -18 27 -36 28 -57 4z"/>
<path d="M4572 3692 c-6 -17 -9 -39 -7 -49 2 -10 4 -21 4 -25 2 -13 32 -9 47
7 8 8 21 30 29 50 14 32 14 35 -2 35 -10 0 -28 3 -39 6 -17 5 -24 0 -32 -24z"/>
<path d="M5626 3824 c-22 -22 -20 -51 5 -57 13 -4 18 -10 14 -17 -9 -14 12
-30 39 -30 16 0 18 6 13 47 -3 29 -12 52 -23 60 -23 17 -29 16 -48 -3z"/>
</g>
</svg>
